<svg xmlns="http://www.w3.org/2000/svg" width="182.8" height="302.247" viewBox="0 0 182.8 302.247"><g id="Group_17411" data-name="Group 17411" transform="translate(-62.468 -344.55)" opacity="0.2"><g id="Group_17331" data-name="Group 17331" transform="translate(62.468 344.55)"><g id="Group_17315" data-name="Group 17315"><path id="Path_23218" data-name="Path 23218" d="M69.137,347.883A3.334,3.334,0,1,1,65.8,344.55,3.334,3.334,0,0,1,69.137,347.883Z" transform="translate(-62.468 -344.549)" fill="#16d877"></path><circle id="Ellipse_149" data-name="Ellipse 149" cx="3.334" cy="3.334" r="3.334" transform="translate(19.571)" fill="#16d877"></circle><circle id="Ellipse_150" data-name="Ellipse 150" cx="3.334" cy="3.334" r="3.334" transform="translate(39.141)" fill="#16d877"></circle><path id="Path_23219" data-name="Path 23219" d="M98.322,347.883a3.334,3.334,0,1,1-3.333-3.333A3.334,3.334,0,0,1,98.322,347.883Z" transform="translate(-32.943 -344.549)" fill="#16d877"></path><circle id="Ellipse_151" data-name="Ellipse 151" cx="3.334" cy="3.334" r="3.334" transform="translate(78.281)" fill="#16d877"></circle><circle id="Ellipse_152" data-name="Ellipse 152" cx="3.334" cy="3.334" r="3.334" transform="translate(97.851)" fill="#16d877"></circle><path id="Path_23220" data-name="Path 23220" d="M127.507,347.883a3.334,3.334,0,1,1-3.333-3.333A3.334,3.334,0,0,1,127.507,347.883Z" transform="translate(-3.417 -344.549)" fill="#16d877"></path><path id="Path_23221" data-name="Path 23221" d="M137.236,347.883a3.334,3.334,0,1,1-3.335-3.333A3.335,3.335,0,0,1,137.236,347.883Z" transform="translate(6.425 -344.549)" fill="#16d877"></path><circle id="Ellipse_153" data-name="Ellipse 153" cx="3.334" cy="3.334" r="3.334" transform="translate(156.562)" fill="#16d877"></circle><path id="Path_23222" data-name="Path 23222" d="M156.692,347.883a3.334,3.334,0,1,1-3.333-3.333A3.334,3.334,0,0,1,156.692,347.883Z" transform="translate(26.108 -344.549)" fill="#16d877"></path></g><g id="Group_17316" data-name="Group 17316" transform="translate(0 19.705)"><path id="Path_23223" data-name="Path 23223" d="M69.137,357.68a3.334,3.334,0,1,1-3.333-3.335A3.334,3.334,0,0,1,69.137,357.68Z" transform="translate(-62.468 -354.345)" fill="#16d877"></path><circle id="Ellipse_154" data-name="Ellipse 154" cx="3.334" cy="3.334" r="3.334" transform="translate(19.571 0)" fill="#16d877"></circle><circle id="Ellipse_155" data-name="Ellipse 155" cx="3.334" cy="3.334" r="3.334" transform="translate(39.141 0)" fill="#16d877"></circle><path id="Path_23224" data-name="Path 23224" d="M98.322,357.68a3.334,3.334,0,1,1-3.333-3.335A3.334,3.334,0,0,1,98.322,357.68Z" transform="translate(-32.943 -354.345)" fill="#16d877"></path><circle id="Ellipse_156" data-name="Ellipse 156" cx="3.334" cy="3.334" r="3.334" transform="translate(78.281 0)" fill="#16d877"></circle><circle id="Ellipse_157" data-name="Ellipse 157" cx="3.334" cy="3.334" r="3.334" transform="translate(97.851 0)" fill="#16d877"></circle><path id="Path_23225" data-name="Path 23225" d="M127.507,357.68a3.334,3.334,0,1,1-3.333-3.335A3.334,3.334,0,0,1,127.507,357.68Z" transform="translate(-3.417 -354.345)" fill="#16d877"></path><path id="Path_23226" data-name="Path 23226" d="M137.236,357.68a3.334,3.334,0,1,1-3.335-3.335A3.334,3.334,0,0,1,137.236,357.68Z" transform="translate(6.425 -354.345)" fill="#16d877"></path><circle id="Ellipse_158" data-name="Ellipse 158" cx="3.334" cy="3.334" r="3.334" transform="translate(156.562 0)" fill="#16d877"></circle><path id="Path_23227" data-name="Path 23227" d="M156.692,357.68a3.334,3.334,0,1,1-3.333-3.335A3.334,3.334,0,0,1,156.692,357.68Z" transform="translate(26.108 -354.345)" fill="#16d877"></path></g><g id="Group_17317" data-name="Group 17317" transform="translate(0 39.41)"><path id="Path_23228" data-name="Path 23228" d="M69.137,367.474a3.334,3.334,0,1,1-3.333-3.333A3.334,3.334,0,0,1,69.137,367.474Z" transform="translate(-62.468 -364.14)" fill="#16d877"></path><circle id="Ellipse_159" data-name="Ellipse 159" cx="3.334" cy="3.334" r="3.334" transform="translate(19.571)" fill="#16d877"></circle><circle id="Ellipse_160" data-name="Ellipse 160" cx="3.334" cy="3.334" r="3.334" transform="translate(39.141)" fill="#16d877"></circle><path id="Path_23229" data-name="Path 23229" d="M98.322,367.474a3.334,3.334,0,1,1-3.333-3.333A3.334,3.334,0,0,1,98.322,367.474Z" transform="translate(-32.943 -364.14)" fill="#16d877"></path><circle id="Ellipse_161" data-name="Ellipse 161" cx="3.334" cy="3.334" r="3.334" transform="translate(78.281)" fill="#16d877"></circle><circle id="Ellipse_162" data-name="Ellipse 162" cx="3.334" cy="3.334" r="3.334" transform="translate(97.851)" fill="#16d877"></circle><path id="Path_23230" data-name="Path 23230" d="M127.507,367.474a3.334,3.334,0,1,1-3.333-3.333A3.334,3.334,0,0,1,127.507,367.474Z" transform="translate(-3.417 -364.14)" fill="#16d877"></path><path id="Path_23231" data-name="Path 23231" d="M137.236,367.474a3.334,3.334,0,1,1-3.335-3.333A3.335,3.335,0,0,1,137.236,367.474Z" transform="translate(6.425 -364.14)" fill="#16d877"></path><circle id="Ellipse_163" data-name="Ellipse 163" cx="3.334" cy="3.334" r="3.334" transform="translate(156.562)" fill="#16d877"></circle><path id="Path_23232" data-name="Path 23232" d="M156.692,367.474a3.334,3.334,0,1,1-3.333-3.333A3.334,3.334,0,0,1,156.692,367.474Z" transform="translate(26.108 -364.14)" fill="#16d877"></path></g><g id="Group_17318" data-name="Group 17318" transform="translate(0 59.115)"><path id="Path_23233" data-name="Path 23233" d="M69.137,377.271a3.334,3.334,0,1,1-3.333-3.335A3.334,3.334,0,0,1,69.137,377.271Z" transform="translate(-62.468 -373.936)" fill="#16d877"></path><circle id="Ellipse_164" data-name="Ellipse 164" cx="3.334" cy="3.334" r="3.334" transform="translate(19.571 0)" fill="#16d877"></circle><circle id="Ellipse_165" data-name="Ellipse 165" cx="3.334" cy="3.334" r="3.334" transform="translate(39.141 0)" fill="#16d877"></circle><path id="Path_23234" data-name="Path 23234" d="M98.322,377.271a3.334,3.334,0,1,1-3.333-3.335A3.334,3.334,0,0,1,98.322,377.271Z" transform="translate(-32.943 -373.936)" fill="#16d877"></path><circle id="Ellipse_166" data-name="Ellipse 166" cx="3.334" cy="3.334" r="3.334" transform="translate(78.281 0)" fill="#16d877"></circle><circle id="Ellipse_167" data-name="Ellipse 167" cx="3.334" cy="3.334" r="3.334" transform="translate(97.851 0)" fill="#16d877"></circle><path id="Path_23235" data-name="Path 23235" d="M127.507,377.271a3.334,3.334,0,1,1-3.333-3.335A3.334,3.334,0,0,1,127.507,377.271Z" transform="translate(-3.417 -373.936)" fill="#16d877"></path><path id="Path_23236" data-name="Path 23236" d="M137.236,377.271a3.334,3.334,0,1,1-3.335-3.335A3.334,3.334,0,0,1,137.236,377.271Z" transform="translate(6.425 -373.936)" fill="#16d877"></path><circle id="Ellipse_168" data-name="Ellipse 168" cx="3.334" cy="3.334" r="3.334" transform="translate(156.562 0)" fill="#16d877"></circle><path id="Path_23237" data-name="Path 23237" d="M156.692,377.271a3.334,3.334,0,1,1-3.333-3.335A3.334,3.334,0,0,1,156.692,377.271Z" transform="translate(26.108 -373.936)" fill="#16d877"></path></g><g id="Group_17319" data-name="Group 17319" transform="translate(0 78.821)"><path id="Path_23238" data-name="Path 23238" d="M69.137,387.065a3.334,3.334,0,1,1-3.333-3.333A3.334,3.334,0,0,1,69.137,387.065Z" transform="translate(-62.468 -383.731)" fill="#16d877"></path><circle id="Ellipse_169" data-name="Ellipse 169" cx="3.334" cy="3.334" r="3.334" transform="translate(19.571)" fill="#16d877"></circle><circle id="Ellipse_170" data-name="Ellipse 170" cx="3.334" cy="3.334" r="3.334" transform="translate(39.141)" fill="#16d877"></circle><path id="Path_23239" data-name="Path 23239" d="M98.322,387.065a3.334,3.334,0,1,1-3.333-3.333A3.334,3.334,0,0,1,98.322,387.065Z" transform="translate(-32.943 -383.731)" fill="#16d877"></path><circle id="Ellipse_171" data-name="Ellipse 171" cx="3.334" cy="3.334" r="3.334" transform="translate(78.281)" fill="#16d877"></circle><circle id="Ellipse_172" data-name="Ellipse 172" cx="3.334" cy="3.334" r="3.334" transform="translate(97.851)" fill="#16d877"></circle><path id="Path_23240" data-name="Path 23240" d="M127.507,387.065a3.334,3.334,0,1,1-3.333-3.333A3.334,3.334,0,0,1,127.507,387.065Z" transform="translate(-3.417 -383.731)" fill="#16d877"></path><path id="Path_23241" data-name="Path 23241" d="M137.236,387.065a3.334,3.334,0,1,1-3.335-3.333A3.335,3.335,0,0,1,137.236,387.065Z" transform="translate(6.425 -383.731)" fill="#16d877"></path><circle id="Ellipse_173" data-name="Ellipse 173" cx="3.334" cy="3.334" r="3.334" transform="translate(156.562)" fill="#16d877"></circle><path id="Path_23242" data-name="Path 23242" d="M156.692,387.065a3.334,3.334,0,1,1-3.333-3.333A3.334,3.334,0,0,1,156.692,387.065Z" transform="translate(26.108 -383.731)" fill="#16d877"></path></g><g id="Group_17320" data-name="Group 17320" transform="translate(0 98.526)"><path id="Path_23243" data-name="Path 23243" d="M69.137,396.862a3.334,3.334,0,1,1-3.333-3.335A3.334,3.334,0,0,1,69.137,396.862Z" transform="translate(-62.468 -393.527)" fill="#16d877"></path><circle id="Ellipse_174" data-name="Ellipse 174" cx="3.334" cy="3.334" r="3.334" transform="translate(19.571 0)" fill="#16d877"></circle><circle id="Ellipse_175" data-name="Ellipse 175" cx="3.334" cy="3.334" r="3.334" transform="translate(39.141 0)" fill="#16d877"></circle><path id="Path_23244" data-name="Path 23244" d="M98.322,396.862a3.334,3.334,0,1,1-3.333-3.335A3.334,3.334,0,0,1,98.322,396.862Z" transform="translate(-32.943 -393.527)" fill="#16d877"></path><circle id="Ellipse_176" data-name="Ellipse 176" cx="3.334" cy="3.334" r="3.334" transform="translate(78.281 0)" fill="#16d877"></circle><circle id="Ellipse_177" data-name="Ellipse 177" cx="3.334" cy="3.334" r="3.334" transform="translate(97.851 0)" fill="#16d877"></circle><path id="Path_23245" data-name="Path 23245" d="M127.507,396.862a3.334,3.334,0,1,1-3.333-3.335A3.334,3.334,0,0,1,127.507,396.862Z" transform="translate(-3.417 -393.527)" fill="#16d877"></path><path id="Path_23246" data-name="Path 23246" d="M137.236,396.862a3.334,3.334,0,1,1-3.335-3.335A3.334,3.334,0,0,1,137.236,396.862Z" transform="translate(6.425 -393.527)" fill="#16d877"></path><circle id="Ellipse_178" data-name="Ellipse 178" cx="3.334" cy="3.334" r="3.334" transform="translate(156.562 0)" fill="#16d877"></circle><path id="Path_23247" data-name="Path 23247" d="M156.692,396.862a3.334,3.334,0,1,1-3.333-3.335A3.334,3.334,0,0,1,156.692,396.862Z" transform="translate(26.108 -393.527)" fill="#16d877"></path></g><g id="Group_17321" data-name="Group 17321" transform="translate(0 118.231)"><path id="Path_23248" data-name="Path 23248" d="M69.137,406.656a3.334,3.334,0,1,1-3.333-3.333A3.334,3.334,0,0,1,69.137,406.656Z" transform="translate(-62.468 -403.322)" fill="#16d877"></path><circle id="Ellipse_179" data-name="Ellipse 179" cx="3.334" cy="3.334" r="3.334" transform="translate(19.571)" fill="#16d877"></circle><circle id="Ellipse_180" data-name="Ellipse 180" cx="3.334" cy="3.334" r="3.334" transform="translate(39.141)" fill="#16d877"></circle><path id="Path_23249" data-name="Path 23249" d="M98.322,406.656a3.334,3.334,0,1,1-3.333-3.333A3.334,3.334,0,0,1,98.322,406.656Z" transform="translate(-32.943 -403.322)" fill="#16d877"></path><circle id="Ellipse_181" data-name="Ellipse 181" cx="3.334" cy="3.334" r="3.334" transform="translate(78.281)" fill="#16d877"></circle><circle id="Ellipse_182" data-name="Ellipse 182" cx="3.334" cy="3.334" r="3.334" transform="translate(97.851)" fill="#16d877"></circle><path id="Path_23250" data-name="Path 23250" d="M127.507,406.656a3.334,3.334,0,1,1-3.333-3.333A3.334,3.334,0,0,1,127.507,406.656Z" transform="translate(-3.417 -403.322)" fill="#16d877"></path><path id="Path_23251" data-name="Path 23251" d="M137.236,406.656a3.334,3.334,0,1,1-3.335-3.333A3.335,3.335,0,0,1,137.236,406.656Z" transform="translate(6.425 -403.322)" fill="#16d877"></path><circle id="Ellipse_183" data-name="Ellipse 183" cx="3.334" cy="3.334" r="3.334" transform="translate(156.562)" fill="#16d877"></circle><path id="Path_23252" data-name="Path 23252" d="M156.692,406.656a3.334,3.334,0,1,1-3.333-3.333A3.334,3.334,0,0,1,156.692,406.656Z" transform="translate(26.108 -403.322)" fill="#16d877"></path></g><g id="Group_17322" data-name="Group 17322" transform="translate(0 137.936)"><path id="Path_23253" data-name="Path 23253" d="M69.137,416.453a3.334,3.334,0,1,1-3.333-3.335A3.334,3.334,0,0,1,69.137,416.453Z" transform="translate(-62.468 -413.118)" fill="#16d877"></path><circle id="Ellipse_184" data-name="Ellipse 184" cx="3.334" cy="3.334" r="3.334" transform="translate(19.571 0)" fill="#16d877"></circle><circle id="Ellipse_185" data-name="Ellipse 185" cx="3.334" cy="3.334" r="3.334" transform="translate(39.141 0)" fill="#16d877"></circle><path id="Path_23254" data-name="Path 23254" d="M98.322,416.453a3.334,3.334,0,1,1-3.333-3.335A3.334,3.334,0,0,1,98.322,416.453Z" transform="translate(-32.943 -413.118)" fill="#16d877"></path><circle id="Ellipse_186" data-name="Ellipse 186" cx="3.334" cy="3.334" r="3.334" transform="translate(78.281 0)" fill="#16d877"></circle><circle id="Ellipse_187" data-name="Ellipse 187" cx="3.334" cy="3.334" r="3.334" transform="translate(97.851 0)" fill="#16d877"></circle><path id="Path_23255" data-name="Path 23255" d="M127.507,416.453a3.334,3.334,0,1,1-3.333-3.335A3.334,3.334,0,0,1,127.507,416.453Z" transform="translate(-3.417 -413.118)" fill="#16d877"></path><path id="Path_23256" data-name="Path 23256" d="M137.236,416.453a3.334,3.334,0,1,1-3.335-3.335A3.334,3.334,0,0,1,137.236,416.453Z" transform="translate(6.425 -413.118)" fill="#16d877"></path><circle id="Ellipse_188" data-name="Ellipse 188" cx="3.334" cy="3.334" r="3.334" transform="translate(156.562 0)" fill="#16d877"></circle><path id="Path_23257" data-name="Path 23257" d="M156.692,416.453a3.334,3.334,0,1,1-3.333-3.335A3.334,3.334,0,0,1,156.692,416.453Z" transform="translate(26.108 -413.118)" fill="#16d877"></path></g><g id="Group_17323" data-name="Group 17323" transform="translate(0 157.642)"><path id="Path_23258" data-name="Path 23258" d="M69.137,426.247a3.334,3.334,0,1,1-3.333-3.333A3.334,3.334,0,0,1,69.137,426.247Z" transform="translate(-62.468 -422.913)" fill="#16d877"></path><circle id="Ellipse_189" data-name="Ellipse 189" cx="3.334" cy="3.334" r="3.334" transform="translate(19.571)" fill="#16d877"></circle><circle id="Ellipse_190" data-name="Ellipse 190" cx="3.334" cy="3.334" r="3.334" transform="translate(39.141)" fill="#16d877"></circle><path id="Path_23259" data-name="Path 23259" d="M98.322,426.247a3.334,3.334,0,1,1-3.333-3.333A3.334,3.334,0,0,1,98.322,426.247Z" transform="translate(-32.943 -422.913)" fill="#16d877"></path><circle id="Ellipse_191" data-name="Ellipse 191" cx="3.334" cy="3.334" r="3.334" transform="translate(78.281)" fill="#16d877"></circle><circle id="Ellipse_192" data-name="Ellipse 192" cx="3.334" cy="3.334" r="3.334" transform="translate(97.851)" fill="#16d877"></circle><path id="Path_23260" data-name="Path 23260" d="M127.507,426.247a3.334,3.334,0,1,1-3.333-3.333A3.334,3.334,0,0,1,127.507,426.247Z" transform="translate(-3.417 -422.913)" fill="#16d877"></path><path id="Path_23261" data-name="Path 23261" d="M137.236,426.247a3.334,3.334,0,1,1-3.335-3.333A3.335,3.335,0,0,1,137.236,426.247Z" transform="translate(6.425 -422.913)" fill="#16d877"></path><circle id="Ellipse_193" data-name="Ellipse 193" cx="3.334" cy="3.334" r="3.334" transform="translate(156.562)" fill="#16d877"></circle><path id="Path_23262" data-name="Path 23262" d="M156.692,426.247a3.334,3.334,0,1,1-3.333-3.333A3.334,3.334,0,0,1,156.692,426.247Z" transform="translate(26.108 -422.913)" fill="#16d877"></path></g><g id="Group_17324" data-name="Group 17324" transform="translate(0 177.347)"><path id="Path_23263" data-name="Path 23263" d="M69.137,436.044a3.334,3.334,0,1,1-3.333-3.335A3.334,3.334,0,0,1,69.137,436.044Z" transform="translate(-62.468 -432.709)" fill="#16d877"></path><circle id="Ellipse_194" data-name="Ellipse 194" cx="3.334" cy="3.334" r="3.334" transform="translate(19.571 0)" fill="#16d877"></circle><circle id="Ellipse_195" data-name="Ellipse 195" cx="3.334" cy="3.334" r="3.334" transform="translate(39.141 0)" fill="#16d877"></circle><path id="Path_23264" data-name="Path 23264" d="M98.322,436.044a3.334,3.334,0,1,1-3.333-3.335A3.334,3.334,0,0,1,98.322,436.044Z" transform="translate(-32.943 -432.709)" fill="#16d877"></path><circle id="Ellipse_196" data-name="Ellipse 196" cx="3.334" cy="3.334" r="3.334" transform="translate(78.281 0)" fill="#16d877"></circle><circle id="Ellipse_197" data-name="Ellipse 197" cx="3.334" cy="3.334" r="3.334" transform="translate(97.851 0)" fill="#16d877"></circle><path id="Path_23265" data-name="Path 23265" d="M127.507,436.044a3.334,3.334,0,1,1-3.333-3.335A3.334,3.334,0,0,1,127.507,436.044Z" transform="translate(-3.417 -432.709)" fill="#16d877"></path><path id="Path_23266" data-name="Path 23266" d="M137.236,436.044a3.334,3.334,0,1,1-3.335-3.335A3.334,3.334,0,0,1,137.236,436.044Z" transform="translate(6.425 -432.709)" fill="#16d877"></path><circle id="Ellipse_198" data-name="Ellipse 198" cx="3.334" cy="3.334" r="3.334" transform="translate(156.562 0)" fill="#16d877"></circle><path id="Path_23267" data-name="Path 23267" d="M156.692,436.044a3.334,3.334,0,1,1-3.333-3.335A3.334,3.334,0,0,1,156.692,436.044Z" transform="translate(26.108 -432.709)" fill="#16d877"></path></g><g id="Group_17325" data-name="Group 17325" transform="translate(0 197.052)"><path id="Path_23268" data-name="Path 23268" d="M69.137,445.838a3.334,3.334,0,1,1-3.333-3.333A3.334,3.334,0,0,1,69.137,445.838Z" transform="translate(-62.468 -442.505)" fill="#16d877"></path><circle id="Ellipse_199" data-name="Ellipse 199" cx="3.334" cy="3.334" r="3.334" transform="translate(19.571)" fill="#16d877"></circle><circle id="Ellipse_200" data-name="Ellipse 200" cx="3.334" cy="3.334" r="3.334" transform="translate(39.141)" fill="#16d877"></circle><path id="Path_23269" data-name="Path 23269" d="M98.322,445.838a3.334,3.334,0,1,1-3.333-3.333A3.334,3.334,0,0,1,98.322,445.838Z" transform="translate(-32.943 -442.505)" fill="#16d877"></path><circle id="Ellipse_201" data-name="Ellipse 201" cx="3.334" cy="3.334" r="3.334" transform="translate(78.281)" fill="#16d877"></circle><circle id="Ellipse_202" data-name="Ellipse 202" cx="3.334" cy="3.334" r="3.334" transform="translate(97.851)" fill="#16d877"></circle><path id="Path_23270" data-name="Path 23270" d="M127.507,445.838a3.334,3.334,0,1,1-3.333-3.333A3.334,3.334,0,0,1,127.507,445.838Z" transform="translate(-3.417 -442.505)" fill="#16d877"></path><path id="Path_23271" data-name="Path 23271" d="M137.236,445.838a3.334,3.334,0,1,1-3.335-3.333A3.334,3.334,0,0,1,137.236,445.838Z" transform="translate(6.425 -442.505)" fill="#16d877"></path><circle id="Ellipse_203" data-name="Ellipse 203" cx="3.334" cy="3.334" r="3.334" transform="translate(156.562)" fill="#16d877"></circle><path id="Path_23272" data-name="Path 23272" d="M156.692,445.838a3.334,3.334,0,1,1-3.333-3.333A3.334,3.334,0,0,1,156.692,445.838Z" transform="translate(26.108 -442.505)" fill="#16d877"></path></g><g id="Group_17326" data-name="Group 17326" transform="translate(0 216.757)"><path id="Path_23273" data-name="Path 23273" d="M69.137,455.635A3.334,3.334,0,1,1,65.8,452.3,3.334,3.334,0,0,1,69.137,455.635Z" transform="translate(-62.468 -452.3)" fill="#16d877"></path><circle id="Ellipse_204" data-name="Ellipse 204" cx="3.334" cy="3.334" r="3.334" transform="translate(19.571 0)" fill="#16d877"></circle><circle id="Ellipse_205" data-name="Ellipse 205" cx="3.334" cy="3.334" r="3.334" transform="translate(39.141 0)" fill="#16d877"></circle><path id="Path_23274" data-name="Path 23274" d="M98.322,455.635a3.334,3.334,0,1,1-3.333-3.335A3.334,3.334,0,0,1,98.322,455.635Z" transform="translate(-32.943 -452.3)" fill="#16d877"></path><circle id="Ellipse_206" data-name="Ellipse 206" cx="3.334" cy="3.334" r="3.334" transform="translate(78.281 0)" fill="#16d877"></circle><circle id="Ellipse_207" data-name="Ellipse 207" cx="3.334" cy="3.334" r="3.334" transform="translate(97.851 0)" fill="#16d877"></circle><path id="Path_23275" data-name="Path 23275" d="M127.507,455.635a3.334,3.334,0,1,1-3.333-3.335A3.334,3.334,0,0,1,127.507,455.635Z" transform="translate(-3.417 -452.3)" fill="#16d877"></path><path id="Path_23276" data-name="Path 23276" d="M137.236,455.635A3.334,3.334,0,1,1,133.9,452.3,3.334,3.334,0,0,1,137.236,455.635Z" transform="translate(6.425 -452.3)" fill="#16d877"></path><circle id="Ellipse_208" data-name="Ellipse 208" cx="3.334" cy="3.334" r="3.334" transform="translate(156.562 0)" fill="#16d877"></circle><path id="Path_23277" data-name="Path 23277" d="M156.692,455.635a3.334,3.334,0,1,1-3.333-3.335A3.334,3.334,0,0,1,156.692,455.635Z" transform="translate(26.108 -452.3)" fill="#16d877"></path></g><g id="Group_17327" data-name="Group 17327" transform="translate(0 236.463)"><path id="Path_23278" data-name="Path 23278" d="M69.137,465.429A3.334,3.334,0,1,1,65.8,462.1,3.334,3.334,0,0,1,69.137,465.429Z" transform="translate(-62.468 -462.095)" fill="#16d877"></path><circle id="Ellipse_209" data-name="Ellipse 209" cx="3.334" cy="3.334" r="3.334" transform="translate(19.571)" fill="#16d877"></circle><circle id="Ellipse_210" data-name="Ellipse 210" cx="3.334" cy="3.334" r="3.334" transform="translate(39.141)" fill="#16d877"></circle><path id="Path_23279" data-name="Path 23279" d="M98.322,465.429a3.334,3.334,0,1,1-3.333-3.333A3.334,3.334,0,0,1,98.322,465.429Z" transform="translate(-32.943 -462.095)" fill="#16d877"></path><circle id="Ellipse_211" data-name="Ellipse 211" cx="3.334" cy="3.334" r="3.334" transform="translate(78.281)" fill="#16d877"></circle><circle id="Ellipse_212" data-name="Ellipse 212" cx="3.334" cy="3.334" r="3.334" transform="translate(97.851)" fill="#16d877"></circle><path id="Path_23280" data-name="Path 23280" d="M127.507,465.429a3.334,3.334,0,1,1-3.333-3.333A3.334,3.334,0,0,1,127.507,465.429Z" transform="translate(-3.417 -462.095)" fill="#16d877"></path><path id="Path_23281" data-name="Path 23281" d="M137.236,465.429A3.334,3.334,0,1,1,133.9,462.1,3.335,3.335,0,0,1,137.236,465.429Z" transform="translate(6.425 -462.095)" fill="#16d877"></path><circle id="Ellipse_213" data-name="Ellipse 213" cx="3.334" cy="3.334" r="3.334" transform="translate(156.562)" fill="#16d877"></circle><path id="Path_23282" data-name="Path 23282" d="M156.692,465.429a3.334,3.334,0,1,1-3.333-3.333A3.334,3.334,0,0,1,156.692,465.429Z" transform="translate(26.108 -462.095)" fill="#16d877"></path></g><g id="Group_17328" data-name="Group 17328" transform="translate(0 256.168)"><path id="Path_23283" data-name="Path 23283" d="M69.137,475.226a3.334,3.334,0,1,1-3.333-3.335A3.334,3.334,0,0,1,69.137,475.226Z" transform="translate(-62.468 -471.891)" fill="#16d877"></path><circle id="Ellipse_214" data-name="Ellipse 214" cx="3.334" cy="3.334" r="3.334" transform="translate(19.571 0)" fill="#16d877"></circle><circle id="Ellipse_215" data-name="Ellipse 215" cx="3.334" cy="3.334" r="3.334" transform="translate(39.141 0)" fill="#16d877"></circle><path id="Path_23284" data-name="Path 23284" d="M98.322,475.226a3.334,3.334,0,1,1-3.333-3.335A3.334,3.334,0,0,1,98.322,475.226Z" transform="translate(-32.943 -471.891)" fill="#16d877"></path><circle id="Ellipse_216" data-name="Ellipse 216" cx="3.334" cy="3.334" r="3.334" transform="translate(78.281 0)" fill="#16d877"></circle><circle id="Ellipse_217" data-name="Ellipse 217" cx="3.334" cy="3.334" r="3.334" transform="translate(97.851 0)" fill="#16d877"></circle><path id="Path_23285" data-name="Path 23285" d="M127.507,475.226a3.334,3.334,0,1,1-3.333-3.335A3.334,3.334,0,0,1,127.507,475.226Z" transform="translate(-3.417 -471.891)" fill="#16d877"></path><path id="Path_23286" data-name="Path 23286" d="M137.236,475.226a3.334,3.334,0,1,1-3.335-3.335A3.334,3.334,0,0,1,137.236,475.226Z" transform="translate(6.425 -471.891)" fill="#16d877"></path><circle id="Ellipse_218" data-name="Ellipse 218" cx="3.334" cy="3.334" r="3.334" transform="translate(156.562 0)" fill="#16d877"></circle><path id="Path_23287" data-name="Path 23287" d="M156.692,475.226a3.334,3.334,0,1,1-3.333-3.335A3.334,3.334,0,0,1,156.692,475.226Z" transform="translate(26.108 -471.891)" fill="#16d877"></path></g><g id="Group_17329" data-name="Group 17329" transform="translate(0 275.873)"><path id="Path_23288" data-name="Path 23288" d="M69.137,485.02a3.334,3.334,0,1,1-3.333-3.333A3.334,3.334,0,0,1,69.137,485.02Z" transform="translate(-62.468 -481.686)" fill="#16d877"></path><circle id="Ellipse_219" data-name="Ellipse 219" cx="3.334" cy="3.334" r="3.334" transform="translate(19.571)" fill="#16d877"></circle><circle id="Ellipse_220" data-name="Ellipse 220" cx="3.334" cy="3.334" r="3.334" transform="translate(39.141)" fill="#16d877"></circle><path id="Path_23289" data-name="Path 23289" d="M98.322,485.02a3.334,3.334,0,1,1-3.333-3.333A3.334,3.334,0,0,1,98.322,485.02Z" transform="translate(-32.943 -481.686)" fill="#16d877"></path><circle id="Ellipse_221" data-name="Ellipse 221" cx="3.334" cy="3.334" r="3.334" transform="translate(78.281)" fill="#16d877"></circle><circle id="Ellipse_222" data-name="Ellipse 222" cx="3.334" cy="3.334" r="3.334" transform="translate(97.851)" fill="#16d877"></circle><path id="Path_23290" data-name="Path 23290" d="M127.507,485.02a3.334,3.334,0,1,1-3.333-3.333A3.334,3.334,0,0,1,127.507,485.02Z" transform="translate(-3.417 -481.686)" fill="#16d877"></path><path id="Path_23291" data-name="Path 23291" d="M137.236,485.02a3.334,3.334,0,1,1-3.335-3.333A3.335,3.335,0,0,1,137.236,485.02Z" transform="translate(6.425 -481.686)" fill="#16d877"></path><circle id="Ellipse_223" data-name="Ellipse 223" cx="3.334" cy="3.334" r="3.334" transform="translate(156.562)" fill="#16d877"></circle><path id="Path_23292" data-name="Path 23292" d="M156.692,485.02a3.334,3.334,0,1,1-3.333-3.333A3.334,3.334,0,0,1,156.692,485.02Z" transform="translate(26.108 -481.686)" fill="#16d877"></path></g><g id="Group_17330" data-name="Group 17330" transform="translate(0 295.578)"><path id="Path_23293" data-name="Path 23293" d="M69.137,494.817a3.334,3.334,0,1,1-3.333-3.335A3.334,3.334,0,0,1,69.137,494.817Z" transform="translate(-62.468 -491.482)" fill="#16d877"></path><circle id="Ellipse_224" data-name="Ellipse 224" cx="3.334" cy="3.334" r="3.334" transform="translate(19.571 0)" fill="#16d877"></circle><circle id="Ellipse_225" data-name="Ellipse 225" cx="3.334" cy="3.334" r="3.334" transform="translate(39.141 0)" fill="#16d877"></circle><path id="Path_23294" data-name="Path 23294" d="M98.322,494.817a3.334,3.334,0,1,1-3.333-3.335A3.334,3.334,0,0,1,98.322,494.817Z" transform="translate(-32.943 -491.482)" fill="#16d877"></path><circle id="Ellipse_226" data-name="Ellipse 226" cx="3.334" cy="3.334" r="3.334" transform="translate(78.281 0)" fill="#16d877"></circle><circle id="Ellipse_227" data-name="Ellipse 227" cx="3.334" cy="3.334" r="3.334" transform="translate(97.851 0)" fill="#16d877"></circle><path id="Path_23295" data-name="Path 23295" d="M127.507,494.817a3.334,3.334,0,1,1-3.333-3.335A3.334,3.334,0,0,1,127.507,494.817Z" transform="translate(-3.417 -491.482)" fill="#16d877"></path><path id="Path_23296" data-name="Path 23296" d="M137.236,494.817a3.334,3.334,0,1,1-3.335-3.335A3.334,3.334,0,0,1,137.236,494.817Z" transform="translate(6.425 -491.482)" fill="#16d877"></path><circle id="Ellipse_228" data-name="Ellipse 228" cx="3.334" cy="3.334" r="3.334" transform="translate(156.562 0)" fill="#16d877"></circle><path id="Path_23297" data-name="Path 23297" d="M156.692,494.817a3.334,3.334,0,1,1-3.333-3.335A3.334,3.334,0,0,1,156.692,494.817Z" transform="translate(26.108 -491.482)" fill="#16d877"></path></g></g></g></svg>